<?xml version="1.0" encoding="utf-8"?>
<!-- Generator: Adobe Illustrator 26.5.0, SVG Export Plug-In . SVG Version: 6.00 Build 0)  -->
<svg version="1.1" id="Camada_1" xmlns="http://www.w3.org/2000/svg" xmlns:xlink="http://www.w3.org/1999/xlink" x="0px" y="0px"
	 viewBox="0 0 595.28 841.89" style="enable-background:new 0 0 595.28 841.89;" xml:space="preserve">
<style type="text/css">
	.st0{fill:#FFFFFF;}
	.st1{fill:#4D4C51;}
	.st2{fill:#EB5C30;}
	.st3{fill:#E52829;}
	.st4{fill:#EC662A;}
	.st5{fill:#FBBC33;}
	.st6{fill:#EF7C35;}
	.st7{fill:#F49C34;}
	.st8{fill:#050607;}
	.st9{fill:#050506;}
	.st10{fill:#060607;}
	.st11{fill:#060608;}
	.st12{fill:#070708;}
	.st13{fill:#EA6F55;}
</style>
<g>
	<g>
		<path class="st0" d="M593.44,714.62c-196.96,0-393.92,0-590.88,0c0-196.08,0-392.16,0-588.24c196.96,0,393.92,0,590.88,0
			C593.44,322.46,593.44,518.54,593.44,714.62z M217.89,567.29c-5.28-3.8-10.21-8.2-16.65-10.08c3.51,3.76,7.05,7.44,11.34,10.28
			c0.73,0.49,1.44,0.98,1.94,1.72c0.13,0.99,0.94,1.45,1.62,1.98c5.78,4.53,11.56,9.05,17.65,13.18
			c17.09,11.61,35.44,20.59,55.15,26.81c21.01,6.63,42.6,9.51,64.56,9.74c5.24,0.05,10.51-0.25,15.77-0.63
			c8.13-0.58,16.19-1.61,24.17-3.18c26.95-5.3,51.87-15.56,74.88-30.57c17.87-11.65,33.81-25.4,47.12-42.16
			c14.49-18.24,26.82-37.72,35.03-59.65c5.31-14.18,9.27-28.69,11.46-43.68c1.28-8.77,1.96-17.58,2.27-26.43
			c0.39-11.12-0.02-22.19-1.54-33.21c-1.88-13.63-5.05-26.97-9.51-40c-2.25-6.57-4.73-13.06-7.69-19.35
			c-1.43-3.04-2.64-3.19-5.04-0.94c-0.47,0.44-0.91,0.9-1.36,1.35c-6.42,6.46-12.85,12.92-19.26,19.39
			c-5.01,5.05-9.99,10.13-15.05,15.13c-1.84,1.82-2.44,3.79-1.71,6.3c0.6,2.06,0.96,4.2,1.41,6.3c2.47,11.57,3.87,23.27,4.16,35.11
			c0.28,11.52-0.33,22.98-2.17,34.36c-1.97,12.25-5.08,24.21-9.41,35.83c-5.75,15.42-13.3,29.9-22.8,43.34
			c-6.85,9.68-14.71,18.48-23.17,26.78c-15.75,15.45-33.82,27.45-53.91,36.41c-21.58,9.62-44.27,14.74-67.85,15.9
			c-7.01,0.35-14.03,0.22-21.06-0.21c-10.22-0.63-20.29-2.1-30.25-4.4c-14.05-3.24-27.57-7.97-40.48-14.44
			C230.77,574.96,224.31,571.18,217.89,567.29z M101.41,595.52c0.21,0.46,0.56,0.78,0.99,1.03c0.49,1.04,1.43,1.69,2.23,2.45
			c4.22,4.02,8.49,7.98,12.91,11.78c29.66,25.47,63.31,43.43,101.04,53.67c1.83,0.5,3.6,1.33,5.56,1.24
			c1.22,0.56,2.39,1.29,3.83,0.92c0.32,0.45,0.82,0.43,1.28,0.53c16.23,3.7,32.64,6.07,49.28,6.81c1.99,0.09,3.98,0.11,5.97,0.25
			c4.61,0.32,9.22,0.86,13.84,1c9.26,0.28,18.52,0.38,27.78-0.22c6.21-0.4,12.42-0.91,18.58-1.72c15.62-2.05,30.93-5.5,45.94-10.33
			c26.74-8.61,51.56-20.99,74.38-37.39c9.8-7.05,19.04-14.79,27.97-22.89c3.55-3.22,6.95-6.61,9.78-10.51
			c0.43-0.59,1.12-1.12,1.02-2.05c-1.55,0.39-1.55,0.39-2.74,1.37c-9.55,7.92-19.64,15.07-30.29,21.44
			c-34.14,20.43-71.29,30.81-110.86,32.96c-9.97,0.54-19.94,0.24-29.9-0.69c-9.07-0.85-18.06-2.17-26.98-3.99
			c-17.82-3.64-35.03-9.18-51.57-16.74c-23.9-10.93-45.24-25.65-64.32-43.67c-13.71-12.94-25.73-27.32-35.89-43.22
			c-15.06-23.57-25.72-49-31.95-76.29c-2.87-12.56-4.68-25.28-5.29-38.13c-0.55-11.57-0.42-23.15,0.65-34.72
			c0.65-7,1.46-13.97,2.68-20.89c2.48-14.03,6.45-27.66,11.39-41.01c13.25-35.81,33.89-66.64,62.4-92.08
			c17.14-15.3,36.11-27.93,56.74-38.04c19.18-9.4,39.27-16.02,60.31-19.79c11.81-2.12,23.71-3.11,35.68-3.54
			c4.22-0.15,8.45,0.02,12.68,0.22c4.94,0.23,9.87,0.52,14.8,0.98c13.7,1.26,27.19,3.64,40.49,7.16c22,5.83,42.66,14.76,62.02,26.71
			c9.39,5.8,18.36,12.18,26.9,19.19c0.69,0.57,1.34,1.4,2.6,1.08c-0.42-1.88-1.63-3.17-2.84-4.35c-5.1-4.95-10.1-10.02-15.44-14.71
			c-10.71-9.39-22.11-17.85-34.23-25.34c-18.21-11.25-37.42-20.35-57.78-27.03c-14.21-4.67-28.72-8.07-43.5-10.31
			c-7.96-1.21-15.97-2.1-24.02-2.49c-3.83-0.18-7.67-0.17-11.47-0.58c-7.4-0.8-14.82-1.07-22.25-1.14
			c-11.83-0.1-23.62,0.63-35.38,2.06c-20.54,2.5-40.52,7.31-59.85,14.67c-34.32,13.08-64.81,32.26-91.3,57.74
			c-11.37,10.94-21.58,22.89-30.87,35.64c-20.34,27.9-34.67,58.6-42.83,92.16c-0.85,3.48-1.86,6.94-2.13,10.54
			c-0.31,0.36-0.61,0.73-0.65,1.23c-0.77,1.08-0.16,2.32-0.38,3.48c-3.12,16.21-4.38,32.61-4.62,49.09
			c-0.03,2.21-0.18,4.45,0.36,6.64c0,0.63,0.01,1.27,0.01,1.9c-0.34,4.63,0.2,9.23,0.58,13.82c1,12.08,2.9,24.03,5.69,35.82
			c0.67,2.83,1.01,5.77,2.34,8.43c0.05,0.3,0.11,0.6,0.16,0.9c0.01,0.31-0.03,0.64,0.05,0.93c5.28,19.39,12.47,38.03,21.91,55.78
			c0.7,1.31,1.17,2.78,2.33,3.83c0.06,0.37,0.16,0.71,0.51,0.91c-0.02,0.95,0.64,1.61,1.07,2.35c9.94,17.33,21.74,33.29,35.37,47.88
			C96.5,590.76,98.61,593.49,101.41,595.52z M324.63,465.71c4.53,0.42,10.53-1.37,16.11-4.55c12.84-7.34,19.54-18.42,19.84-33.26
			c0.08-3.94-0.68-7.79-1.78-11.56c-0.76-2.59-0.53-5.01,0.85-7.37c8.24-14.14,16.45-28.29,24.65-42.45
			c14.65-25.28,29.28-50.56,43.92-75.84c0.96-1.66,1.93-3.3,2.87-4.97c0.48-0.86,0.12-1.54-0.58-2.09
			c-0.84-0.65-1.28,0.03-1.77,0.55c-2.52,2.67-5.04,5.34-7.58,7.99c-4.92,5.13-9.86,10.24-14.77,15.37
			c-6.4,6.69-12.78,13.4-19.19,20.09c-4.53,4.73-9.09,9.43-13.61,14.16c-6.18,6.46-12.34,12.94-18.51,19.41
			c-4.29,4.51-8.57,9.04-12.86,13.55c-3.46,3.65-6.9,7.32-10.42,10.92c-2.97,3.04-6.45,4.9-10.88,4.52
			c-1.26-0.11-2.58-0.08-3.82,0.15c-8.17,1.55-15.51,4.84-21.53,10.72c-13.07,12.74-14.45,35.91-3.4,49.87
			C299.95,460.76,309.99,465.91,324.63,465.71z M496.05,339.37c1.08-0.12,1.75-0.96,2.47-1.69c11.08-11.08,22.14-22.16,33.21-33.25
			c0.28-0.28,0.58-0.56,0.84-0.85c1.5-1.67,1.64-2.53,0.53-4.48c-1.15-2.01-2.36-3.98-3.61-5.93c-5.93-9.24-13.07-17.54-20.35-25.72
			c-1.91-2.14-3.13-2.17-5.2-0.13c-2.04,2.02-4,4.13-6.03,6.17c-7.73,7.76-15.47,15.5-23.2,23.25c-2.09,2.09-2.15,2.57-0.44,4.86
			c7.04,9.46,12.91,19.59,17.6,30.4c0.86,1.98,1.79,3.92,2.7,5.87C494.88,338.53,495.14,339.24,496.05,339.37z M361.45,198.78
			c-0.53-0.57-1.03-0.36-1.47-0.37c-4.39-0.11-8.76,0.49-13.16,0.34c-2.79-0.1-5.57,0.15-8.36,0.4
			c-11.52,1.03-22.96,2.57-34.29,4.94c-9.63,2.01-19.02,4.82-28.2,8.35c-10.32,3.97-20.11,8.99-29.55,14.71
			c-9.22,5.58-18.5,11.1-26.79,18.05c-6.24,5.23-12.39,10.57-18.58,15.88c-0.36,0.31-0.69,0.67-0.96,1.06
			c-0.51,0.73-0.63,1.53,0.09,2.17c0.74,0.66,1.34,0.08,1.86-0.43c1.72-1.67,3.48-3.3,5.44-4.68c5.29-3.72,10.58-7.43,15.89-11.12
			c5.39-3.74,10.95-7.19,17.02-9.74c6.84-2.87,13.8-5.45,20.87-7.72c19.05-6.11,38.5-9.63,58.57-9.29c3.35,0.06,6.7,0.05,10.04,0.45
			c2.85,0.33,5.72,0.44,8.58,0.68c1.83,0.16,3.17-0.52,4.36-1.93c4.38-5.19,8.85-10.3,13.28-15.45
			C357.89,202.99,359.67,200.87,361.45,198.78z M492.84,251.88c0-0.97-0.76-1.55-1.54-2.14c-6.77-5.09-13.54-10.16-20.28-15.28
			c-4.22-3.2-8.73-5.9-13.5-8.17c-1.78-0.85-2.42-0.76-3.81,0.61c-1.65,1.63-3.29,3.26-4.92,4.9c-6.56,6.54-12.73,13.48-19.84,19.47
			c-1.65,1.39-1.57,2.45,0.02,4c0.4,0.39,0.85,0.73,1.29,1.07c2.63,2.08,5.3,4.12,7.89,6.23c7.13,5.81,14.01,11.88,20.22,18.68
			c2.04,2.23,3.23,2.21,5.46,0.2c0.47-0.43,0.93-0.88,1.38-1.33c3.93-3.86,7.87-7.72,11.8-11.59c4.78-4.71,9.55-9.44,14.32-14.16
			C492.01,253.71,492.77,253.08,492.84,251.88z M437,216.31c-15.93-4.5-31.83-8.98-47.72-13.5c-1.54-0.44-2.57,0.08-3.59,1.18
			c-5.2,5.64-10.48,11.2-15.66,16.87c-1.75,1.91-3.71,3.66-5.32,6.01c2.12,0.6,4.02,1.14,5.93,1.66
			c9.81,2.64,19.42,5.83,28.47,10.52c2.06,1.06,4.11,2.14,6.16,3.21c2.39,1.25,4.61,1,6.66-0.76c0.49-0.42,1.01-0.79,1.47-1.22
			c7.88-7.26,15.49-14.8,22.91-22.52C436.65,217.42,437.08,217.15,437,216.31z"/>
		<path class="st1" d="M57.22,537.12c-1.15-1.04-1.63-2.52-2.33-3.83c-9.44-17.75-16.63-36.39-21.91-55.78
			c-0.08-0.29-0.03-0.62-0.05-0.93c0.98,0.35,1.96,0.53,3.02,0.52c3.35-0.05,6.7,0,10.05,0.02c2.23,0.01,4.5-0.2,6.69,0.15
			c2.87,0.45,5.73,0.19,8.58,0.37c0.81,0.05,1.36-0.26,1.73-1c0.36-0.71,0.83-1.36,1.2-2.07c0.39-0.76,0.13-1.25-0.75-1.26
			c-1.67-0.03-3.35-0.05-5.02-0.03c-8.04,0.1-16.09-0.3-24.13,0.42c-0.87,0.08-1.41,0.17-1.11,1.22c0.09,0.32-0.08,0.62-0.42,0.77
			c-1.32-2.66-1.67-5.6-2.34-8.43c-2.79-11.8-4.7-23.75-5.69-35.82c-0.38-4.59-0.92-9.19-0.58-13.82c0.94,0.15,1.88,0.4,2.83,0.44
			c4.62,0.16,9.24,0.02,13.86,0.46c4.27,0.4,8.57,0.51,12.85,0.9c0.51,0.05,1.05,0.08,1.29-0.38c0.66-1.31,1.74-2.42,2.14-3.95
			c-0.4-0.13-0.61-0.25-0.83-0.26c-10.05-0.05-20.1-0.07-30.15-0.15c-0.94-0.01-1.44,0.48-2,1.03c-0.54-2.19-0.39-4.43-0.36-6.64
			c0.24-16.48,1.51-32.88,4.62-49.09c0.22-1.17-0.39-2.4,0.38-3.48c0.38,2.2,0.4,2.12,2.59,2.63c6.65,1.55,13.37,2.74,19.94,4.64
			c1.91,0.55,3.85,0.97,5.78,1.44c0.79,0.19,1.64,0.39,2.22-0.36c0.75-0.97,1.76-1.78,2.14-3c-1.31-0.86-2.73-0.67-4.01-1.03
			c-4.9-1.4-9.95-2.03-14.91-3.12c-4.33-0.95-8.73-1.63-13.1-2.43c0.27-3.6,1.28-7.06,2.13-10.54
			c8.16-33.56,22.49-64.26,42.83-92.16c9.29-12.75,19.5-24.7,30.87-35.64c26.49-25.48,56.98-44.67,91.3-57.74
			c19.33-7.37,39.31-12.17,59.85-14.67c11.76-1.43,23.55-2.17,35.38-2.06c7.43,0.06,14.85,0.33,22.25,1.14
			c3.8,0.41,7.65,0.4,11.47,0.58c8.05,0.39,16.06,1.28,24.02,2.49c14.78,2.24,29.29,5.64,43.5,10.31
			c20.35,6.68,39.56,15.78,57.78,27.03c12.12,7.49,23.52,15.95,34.23,25.34c5.35,4.69,10.35,9.76,15.44,14.71
			c1.22,1.18,2.43,2.47,2.84,4.35c-1.26,0.33-1.91-0.51-2.6-1.08c-8.53-7.01-17.51-13.39-26.9-19.19
			c-19.36-11.95-40.02-20.88-62.02-26.71c-13.3-3.52-26.79-5.9-40.49-7.16c-4.93-0.45-9.86-0.74-14.8-0.98
			c-4.23-0.2-8.46-0.37-12.68-0.22c-11.96,0.43-23.87,1.42-35.68,3.54c-21.04,3.78-41.12,10.4-60.31,19.79
			c-20.63,10.11-39.6,22.74-56.74,38.04c-28.51,25.45-49.14,56.27-62.4,92.08c-4.94,13.35-8.91,26.98-11.39,41.01
			c-1.22,6.92-2.03,13.89-2.68,20.89c-1.07,11.56-1.2,23.15-0.65,34.72c0.61,12.85,2.43,25.57,5.29,38.13
			c6.23,27.28,16.88,52.72,31.95,76.29c10.16,15.9,22.18,30.28,35.89,43.22c19.08,18.01,40.43,32.73,64.32,43.67
			c16.54,7.57,33.75,13.1,51.57,16.74c8.92,1.82,17.9,3.15,26.98,3.99c9.96,0.93,19.93,1.23,29.9,0.69
			c39.56-2.15,76.71-12.53,110.86-32.96c10.64-6.37,20.74-13.52,30.29-21.44c1.19-0.98,1.18-0.99,2.74-1.37
			c0.1,0.93-0.59,1.46-1.02,2.05c-2.83,3.9-6.23,7.29-9.78,10.51c-8.94,8.1-18.17,15.84-27.97,22.89
			c-22.82,16.4-47.64,28.79-74.38,37.39c-15.01,4.83-30.32,8.27-45.94,10.33c-6.17,0.81-12.37,1.32-18.58,1.72
			c-9.26,0.59-18.52,0.5-27.78,0.22c-4.62-0.14-9.22-0.68-13.84-1c-1.99-0.14-3.98-0.16-5.97-0.25
			c-16.64-0.74-33.05-3.11-49.28-6.81c-0.46-0.1-0.97-0.09-1.28-0.53c-0.12-0.77,0.42-1.15,0.93-1.54
			c5.27-4.09,10.56-8.16,16.02-11.99c1.05-0.74,2.35-1.29,3.01-2.59c-0.76-0.8-1.87-0.73-2.59-1.36c-0.97-0.85-1.76-0.67-2.71,0.14
			c-2.23,1.92-4.57,3.71-6.84,5.58c-3.68,3.03-7.34,6.1-11.03,9.13c-0.58,0.48-0.6,1.08-0.63,1.72c-1.97,0.09-3.74-0.75-5.56-1.24
			c-37.74-10.24-71.38-28.2-101.04-53.67c-4.42-3.8-8.69-7.76-12.91-11.78c-0.8-0.76-1.74-1.4-2.23-2.45
			c0.74,0.07,1.4-0.18,2.06-0.49c6.07-2.82,12.04-5.86,18.21-8.45c1.1-0.46,2.13-1.09,3.24-1.5c0.92-0.34,1.05-0.91,0.76-1.68
			c-1.1-2.99-0.65-3.2-3.68-1.74c-6.96,3.36-13.79,6.98-20.59,10.67c-1.01,0.55-1.06,1.26-1,2.16c-2.8-2.03-4.91-4.76-7.23-7.25
			c-13.64-14.59-25.43-30.55-35.37-47.88c-0.42-0.74-1.09-1.4-1.07-2.35c1.09,0.02,1.73,1.15,3.08,0.89
			c6.39-1.24,12.85-2.09,19.33-2.81c4.82-0.54,4.82-0.55,6.14-4.55c0.04-0.13-0.03-0.31-0.07-0.67c-0.99,0.01-1.97-0.01-3.01,0.19
			c-4.06,0.78-8.14,1.44-12.2,2.19c-3.98,0.74-7.94,1.6-11.93,2.29C58.05,535.74,57.52,536.22,57.22,537.12z M159.35,214.12
			c-1.96-1.8-4.33-2.64-6.46-3.84c-6.71-3.81-13.68-7.15-20.6-10.58c-1.88-0.94-3.49-0.63-5.19,0.93c0.38,0.74,1.21,0.7,1.82,1.03
			c7.76,4.23,15.57,8.39,23,13.17C154.76,216.66,156.91,216.6,159.35,214.12z M269.67,163.34c-0.52-1.1-1.44-1.43-2.27-1.87
			c-1.34-0.7-2.7-1.37-4.04-2.07c-5.42-2.84-10.82-5.71-16.26-8.52c-1.76-0.91-3.59-1.71-5.4-2.52c-0.79-0.35-3.88,0.61-3.82,1.18
			c0.1,1.08,1.29,0.98,1.95,1.48c0.56,0.43,1.19,0.8,1.83,1.12c7.19,3.59,14.05,7.76,21.01,11.76
			C266.29,165.99,266.26,166.04,269.67,163.34z M210.78,182.49c-2.2-1.25-4.22-2.48-6.31-3.56c-6.8-3.52-13.65-6.94-20.43-10.5
			c-1.5-0.79-2.84-0.85-4.29-0.14c-0.4,0.2-1.03,0.24-1.01,0.85c0.01,0.55,0.56,0.67,0.97,0.9c4.8,2.67,9.68,5.18,14.42,7.96
			c3.85,2.25,7.69,4.53,11.54,6.77c0.46,0.27,1,0.81,1.51,0.36C208.25,184.18,209.68,183.77,210.78,182.49z M48.08,299.92
			c0.33,0.21,0.51,0.38,0.73,0.46c9,3.61,17.99,7.27,26.7,11.53c2.24,1.1,3.72,0.84,5.26-0.99c0.93-1.1,1.07-1.22-0.21-1.79
			c-2.25-1-4.53-1.95-6.83-2.83c-6.69-2.55-13.43-4.97-20.07-7.64C51.43,297.77,49.91,298.48,48.08,299.92z M80.87,245.23
			c0.36,0.84,1.04,0.93,1.58,1.22c7.77,4.17,15.48,8.47,23.03,13.02c3.79,2.29,3.75,2.35,7.36-0.21c0.1-0.07,0.11-0.26,0.2-0.51
			c-2.17-1.26-4.3-2.63-6.54-3.78c-6.58-3.38-13.24-6.61-19.79-10.06C84.62,243.81,82.84,243.82,80.87,245.23z M184.28,625.53
			c-0.04-0.42-1.44-2.52-1.84-2.75c-0.9-0.52-1.49,0.27-2.17,0.56c-5.11,2.24-9.87,5.17-14.86,7.66c-2.48,1.24-4.9,2.62-7.33,3.96
			c-1.43,0.79-1.47,2.01-0.21,3.01c0.73,0.58,1.33,0.23,1.98-0.1c6.04-3.03,12.09-6.03,18.3-8.72c1.75-0.76,3.46-1.62,5.2-2.41
			C183.9,626.5,184.34,626.22,184.28,625.53z M305.62,673.79c1.22,0.24,1.96-0.22,2.66-1.19c1.06-1.48,2.35-2.79,3.52-4.18
			c1.47-1.76,2.92-3.55,4.39-5.31c0.31-0.38,0.73-0.9,0.23-1.21c-0.93-0.57-1.95-1.09-3.01-1.32c-0.76-0.17-1.1,0.75-1.53,1.31
			c-1.88,2.45-3.8,4.87-5.67,7.33c-0.77,1.01-1.5,2.04-2.19,3.1c-0.52,0.8-0.3,1.36,0.72,1.46
			C305.05,673.82,305.37,673.79,305.62,673.79z"/>
		<path class="st2" d="M217.89,567.29c6.42,3.88,12.88,7.67,19.6,11.04c12.91,6.47,26.43,11.19,40.48,14.44
			c9.96,2.3,20.04,3.77,30.25,4.4c7.03,0.43,14.05,0.56,21.06,0.21c23.57-1.17,46.27-6.28,67.85-15.9
			c20.09-8.96,38.16-20.96,53.91-36.41c8.46-8.3,16.32-17.1,23.17-26.78c9.51-13.44,17.06-27.92,22.8-43.34
			c4.33-11.63,7.44-23.59,9.41-35.83c1.83-11.38,2.45-22.84,2.17-34.36c-0.29-11.84-1.69-23.53-4.16-35.11
			c-0.45-2.11-0.81-4.24-1.41-6.3c-0.73-2.51-0.13-4.48,1.71-6.3c5.06-5,10.03-10.08,15.05-15.13c6.42-6.46,12.84-12.93,19.26-19.39
			c0.45-0.45,0.89-0.91,1.36-1.35c2.39-2.25,3.61-2.1,5.04,0.94c2.96,6.29,5.44,12.78,7.69,19.35c4.46,13.03,7.63,26.37,9.51,40
			c1.52,11.01,1.93,22.09,1.54,33.21c-0.31,8.85-0.99,17.67-2.27,26.43c-2.19,14.99-6.15,29.5-11.46,43.68
			c-8.21,21.93-20.54,41.4-35.03,59.65c-13.31,16.76-29.25,30.51-47.12,42.16c-23.01,15-47.94,25.27-74.88,30.57
			c-7.98,1.57-16.04,2.6-24.17,3.18c-5.25,0.37-10.52,0.68-15.77,0.63c-21.96-0.23-43.55-3.1-64.56-9.74
			c-19.71-6.22-38.06-15.2-55.15-26.81c-6.08-4.13-11.87-8.65-17.65-13.18c-0.68-0.53-1.48-0.99-1.62-1.98
			C214.97,567.07,215.48,566.78,217.89,567.29z"/>
		<path class="st3" d="M324.63,465.71c-14.64,0.19-24.68-4.95-32.46-14.78c-11.05-13.96-9.67-37.13,3.4-49.87
			c6.03-5.88,13.36-9.17,21.53-10.72c1.24-0.24,2.56-0.26,3.82-0.15c4.43,0.38,7.92-1.48,10.88-4.52c3.51-3.6,6.95-7.27,10.42-10.92
			c4.29-4.51,8.57-9.04,12.86-13.55c6.16-6.48,12.33-12.95,18.51-19.41c4.52-4.73,9.08-9.43,13.61-14.16
			c6.4-6.69,12.78-13.4,19.19-20.09c4.91-5.13,9.86-10.24,14.77-15.37c2.54-2.65,5.06-5.32,7.58-7.99c0.5-0.53,0.93-1.21,1.77-0.55
			c0.7,0.54,1.06,1.23,0.58,2.09c-0.94,1.67-1.91,3.32-2.87,4.97c-14.64,25.28-29.28,50.56-43.92,75.84
			c-8.2,14.16-16.41,28.31-24.65,42.45c-1.38,2.37-1.61,4.79-0.85,7.37c1.1,3.77,1.86,7.62,1.78,11.56
			c-0.3,14.84-7,25.92-19.84,33.26C335.16,464.35,329.16,466.13,324.63,465.71z"/>
		<path class="st4" d="M496.05,339.37c-0.91-0.14-1.17-0.84-1.48-1.49c-0.91-1.95-1.85-3.9-2.7-5.87
			c-4.69-10.82-10.56-20.95-17.6-30.4c-1.71-2.29-1.65-2.76,0.44-4.86c7.73-7.75,15.47-15.49,23.2-23.25
			c2.03-2.04,3.99-4.14,6.03-6.17c2.07-2.04,3.29-2.01,5.2,0.13c7.28,8.18,14.41,16.47,20.35,25.72c1.25,1.95,2.47,3.92,3.61,5.93
			c1.11,1.94,0.96,2.8-0.53,4.48c-0.27,0.3-0.56,0.57-0.84,0.85c-11.07,11.08-22.14,22.17-33.21,33.25
			C497.8,338.41,497.13,339.26,496.05,339.37z"/>
		<path class="st5" d="M361.45,198.78c-1.78,2.09-3.56,4.2-5.37,6.3c-4.43,5.15-8.9,10.26-13.28,15.45
			c-1.19,1.42-2.53,2.09-4.36,1.93c-2.86-0.25-5.73-0.35-8.58-0.68c-3.34-0.39-6.69-0.39-10.04-0.45
			c-20.07-0.34-39.52,3.18-58.57,9.29c-7.07,2.27-14.02,4.85-20.87,7.72c-6.07,2.55-11.63,6-17.02,9.74
			c-5.31,3.69-10.61,7.4-15.89,11.12c-1.96,1.38-3.72,3.01-5.44,4.68c-0.52,0.51-1.12,1.08-1.86,0.43
			c-0.71-0.64-0.59-1.44-0.09-2.17c0.27-0.39,0.6-0.75,0.96-1.06c6.18-5.3,12.34-10.65,18.58-15.88
			c8.3-6.95,17.57-12.47,26.79-18.05c9.44-5.72,19.23-10.74,29.55-14.71c9.18-3.54,18.57-6.34,28.2-8.35
			c11.33-2.37,22.77-3.92,34.29-4.94c2.79-0.25,5.57-0.5,8.36-0.4c4.4,0.15,8.77-0.45,13.16-0.34
			C360.42,198.42,360.92,198.22,361.45,198.78z"/>
		<path class="st6" d="M492.84,251.88c-0.07,1.2-0.83,1.83-1.5,2.5c-4.77,4.72-9.54,9.44-14.32,14.16
			c-3.93,3.87-7.86,7.73-11.8,11.59c-0.46,0.45-0.91,0.9-1.38,1.33c-2.23,2.01-3.42,2.03-5.46-0.2
			c-6.21-6.8-13.09-12.88-20.22-18.68c-2.6-2.12-5.26-4.16-7.89-6.23c-0.44-0.35-0.89-0.68-1.29-1.07c-1.59-1.54-1.68-2.61-0.02-4
			c7.11-5.98,13.28-12.92,19.84-19.47c1.64-1.64,3.28-3.27,4.92-4.9c1.39-1.37,2.03-1.46,3.81-0.61c4.77,2.27,9.28,4.97,13.5,8.17
			c6.74,5.12,13.52,10.19,20.28,15.28C492.09,250.33,492.84,250.91,492.84,251.88z"/>
		<path class="st7" d="M437,216.31c0.08,0.84-0.35,1.12-0.68,1.45c-7.42,7.72-15.03,15.26-22.91,22.52
			c-0.47,0.43-0.99,0.81-1.47,1.22c-2.05,1.76-4.27,2.01-6.66,0.76c-2.05-1.07-4.1-2.15-6.16-3.21
			c-9.06-4.69-18.66-7.88-28.47-10.52c-1.91-0.51-3.8-1.06-5.93-1.66c1.61-2.35,3.57-4.09,5.32-6.01
			c5.17-5.67,10.45-11.23,15.66-16.87c1.02-1.1,2.04-1.62,3.59-1.18C405.17,207.33,421.07,211.81,437,216.31z"/>
		<path class="st8" d="M29.45,355.26c4.37,0.8,8.76,1.48,13.1,2.43c4.96,1.09,10.01,1.73,14.91,3.12c1.28,0.37,2.7,0.17,4.01,1.03
			c-0.38,1.22-1.39,2.03-2.14,3c-0.58,0.75-1.43,0.55-2.22,0.36c-1.93-0.47-3.87-0.89-5.78-1.44c-6.57-1.89-13.29-3.09-19.94-4.64
			c-2.19-0.51-2.21-0.43-2.59-2.63C28.84,355.99,29.14,355.63,29.45,355.26z"/>
		<path class="st9" d="M24.15,415.71c0.56-0.55,1.06-1.04,2-1.03c10.05,0.08,20.1,0.1,30.15,0.15c0.22,0,0.43,0.13,0.83,0.26
			c-0.39,1.53-1.47,2.64-2.14,3.95c-0.23,0.46-0.77,0.42-1.29,0.38c-4.28-0.39-8.58-0.5-12.85-0.9c-4.63-0.44-9.24-0.29-13.86-0.46
			c-0.95-0.03-1.88-0.29-2.83-0.44C24.16,416.97,24.16,416.34,24.15,415.71z"/>
		<path class="st10" d="M32.78,475.69c0.33-0.15,0.51-0.45,0.42-0.77c-0.3-1.05,0.24-1.14,1.11-1.22
			c8.03-0.72,16.08-0.31,24.13-0.42c1.67-0.02,3.35,0,5.02,0.03c0.88,0.02,1.14,0.5,0.75,1.26c-0.36,0.71-0.84,1.36-1.2,2.07
			c-0.37,0.73-0.92,1.05-1.73,1c-2.86-0.18-5.71,0.08-8.58-0.37c-2.18-0.34-4.46-0.13-6.69-0.15c-3.35-0.02-6.7-0.06-10.05-0.02
			c-1.06,0.01-2.04-0.17-3.02-0.52C32.89,476.28,32.83,475.99,32.78,475.69z"/>
		<path class="st11" d="M57.22,537.12c0.3-0.9,0.82-1.38,1.85-1.56c3.99-0.7,7.95-1.55,11.93-2.29c4.06-0.76,8.14-1.42,12.2-2.19
			c1.04-0.2,2.02-0.18,3.01-0.19c0.04,0.36,0.11,0.53,0.07,0.67c-1.32,4-1.32,4.02-6.14,4.55c-6.47,0.72-12.93,1.58-19.33,2.81
			c-1.35,0.26-1.99-0.87-3.08-0.89C57.39,537.83,57.29,537.49,57.22,537.12z"/>
		<path class="st11" d="M101.41,595.52c-0.06-0.9-0.01-1.61,1-2.16c6.8-3.69,13.63-7.31,20.59-10.67c3.03-1.46,2.57-1.25,3.68,1.74
			c0.28,0.77,0.16,1.34-0.76,1.68c-1.11,0.41-2.14,1.04-3.24,1.5c-6.18,2.59-12.15,5.62-18.21,8.45c-0.66,0.31-1.32,0.56-2.06,0.49
			C101.97,596.3,101.62,595.98,101.41,595.52z"/>
		<path class="st12" d="M224.15,665.68c0.03-0.64,0.05-1.24,0.63-1.72c3.69-3.03,7.35-6.09,11.03-9.13
			c2.27-1.87,4.61-3.66,6.84-5.58c0.95-0.82,1.74-0.99,2.71-0.14c0.72,0.63,1.82,0.56,2.59,1.36c-0.66,1.3-1.96,1.85-3.01,2.59
			c-5.46,3.83-10.75,7.9-16.02,11.99c-0.5,0.39-1.05,0.77-0.93,1.54C226.54,666.97,225.36,666.24,224.15,665.68z"/>
		<path class="st13" d="M217.89,567.29c-2.41-0.51-2.92-0.22-3.37,1.92c-0.5-0.74-1.21-1.24-1.94-1.72
			c-4.28-2.84-7.83-6.52-11.34-10.28C207.68,559.09,212.61,563.49,217.89,567.29z"/>
		<path class="st8" d="M159.35,214.12c-2.44,2.48-4.58,2.54-7.42,0.71c-7.43-4.78-15.24-8.94-23-13.17
			c-0.61-0.33-1.44-0.3-1.82-1.03c1.7-1.56,3.3-1.87,5.19-0.93c6.91,3.44,13.88,6.77,20.6,10.58
			C155.02,211.48,157.38,212.32,159.35,214.12z"/>
		<path class="st10" d="M269.67,163.34c-3.41,2.7-3.38,2.66-7.02,0.56c-6.96-4-13.82-8.18-21.01-11.76
			c-0.64-0.32-1.26-0.69-1.83-1.12c-0.66-0.5-1.85-0.4-1.95-1.48c-0.05-0.57,3.03-1.53,3.82-1.18c1.82,0.81,3.64,1.61,5.4,2.52
			c5.43,2.81,10.84,5.68,16.26,8.52c1.34,0.7,2.7,1.37,4.04,2.07C268.23,161.9,269.15,162.24,269.67,163.34z"/>
		<path class="st8" d="M210.78,182.49c-1.1,1.28-2.54,1.69-3.59,2.63c-0.51,0.45-1.05-0.09-1.51-0.36
			c-3.85-2.24-7.69-4.52-11.54-6.77c-4.74-2.78-9.63-5.28-14.42-7.96c-0.42-0.23-0.96-0.35-0.97-0.9c-0.02-0.61,0.61-0.66,1.01-0.85
			c1.45-0.71,2.78-0.65,4.29,0.14c6.78,3.56,13.63,6.98,20.43,10.5C206.57,180.01,208.59,181.24,210.78,182.49z"/>
		<path class="st10" d="M48.08,299.92c1.82-1.44,3.35-2.15,5.59-1.25c6.64,2.67,13.38,5.08,20.07,7.64c2.3,0.88,4.58,1.83,6.83,2.83
			c1.28,0.57,1.14,0.69,0.21,1.79c-1.55,1.83-3.02,2.08-5.26,0.99c-8.71-4.26-17.7-7.92-26.7-11.53
			C48.6,300.3,48.41,300.13,48.08,299.92z"/>
		<path class="st8" d="M80.87,245.23c1.96-1.41,3.74-1.41,5.84-0.31c6.55,3.45,13.21,6.67,19.79,10.06
			c2.24,1.15,4.38,2.52,6.54,3.78c-0.1,0.25-0.11,0.44-0.2,0.51c-3.61,2.56-3.57,2.49-7.36,0.21c-7.55-4.56-15.26-8.85-23.03-13.02
			C81.91,246.16,81.23,246.07,80.87,245.23z"/>
		<path class="st10" d="M184.29,625.53c0.06,0.69-0.39,0.96-0.93,1.21c-1.74,0.79-3.45,1.65-5.2,2.41
			c-6.2,2.69-12.26,5.69-18.3,8.72c-0.65,0.32-1.25,0.68-1.98,0.1c-1.26-1.01-1.21-2.22,0.21-3.01c2.43-1.34,4.84-2.72,7.33-3.96
			c4.99-2.49,9.75-5.42,14.86-7.66c0.68-0.3,1.27-1.08,2.17-0.56C182.85,623.01,184.24,625.11,184.29,625.53z"/>
		<path class="st12" d="M305.62,673.79c-0.25,0-0.57,0.03-0.88,0c-1.01-0.1-1.23-0.66-0.72-1.46c0.68-1.06,1.42-2.1,2.19-3.1
			c1.87-2.45,3.79-4.88,5.67-7.33c0.43-0.56,0.76-1.48,1.53-1.31c1.05,0.23,2.08,0.75,3.01,1.32c0.51,0.31,0.08,0.83-0.23,1.21
			c-1.47,1.77-2.91,3.55-4.39,5.31c-1.17,1.4-2.46,2.71-3.52,4.18C307.59,673.57,306.85,674.03,305.62,673.79z"/>
	</g>
</g>
</svg>
